<svg width="249" height="85" viewBox="0 0 249 85" fill="none" xmlns="http://www.w3.org/2000/svg">
<path d="M105.193 31.4085L105.07 27.2003H116.551C116.687 27.391 116.809 27.677 116.918 28.0583C117.027 28.4124 117.082 28.7937 117.082 29.2023C117.082 29.9104 116.918 30.4552 116.592 30.8365C116.265 31.2178 115.815 31.4085 115.243 31.4085H105.193ZM108.829 27.2003L108.911 31.4085H97.43C97.2938 31.1906 97.1712 30.9046 97.0623 30.5505C96.9533 30.1964 96.8988 29.8015 96.8988 29.3657C96.8988 28.6303 97.0623 28.0855 97.3891 27.7314C97.716 27.3774 98.1654 27.2003 98.7374 27.2003H108.829ZM104.376 30.3054H109.523V51.9183C109.305 52 108.965 52.0681 108.502 52.1226C108.066 52.2043 107.617 52.2451 107.154 52.2451C106.146 52.2451 105.424 52.0681 104.988 51.714C104.58 51.3327 104.376 50.7062 104.376 49.8346V30.3054ZM124.028 37.2918V42.8891H119.003V36.8832C119.003 36.2023 119.166 35.6303 119.493 35.1673C119.82 34.677 120.283 34.2276 120.882 33.819C121.699 33.3287 122.735 32.9202 123.987 32.5933C125.24 32.2665 126.589 32.1031 128.032 32.1031C130.593 32.1031 131.873 32.8929 131.873 34.4727C131.873 34.854 131.818 35.2081 131.709 35.535C131.6 35.8346 131.464 36.107 131.301 36.3521C131.028 36.2976 130.688 36.2568 130.279 36.2295C129.871 36.175 129.435 36.1478 128.972 36.1478C127.991 36.1478 127.065 36.2568 126.194 36.4747C125.349 36.6653 124.628 36.9377 124.028 37.2918ZM119.003 41.214L124.028 41.4591V51.9183C123.81 52 123.497 52.0681 123.089 52.1226C122.68 52.2043 122.231 52.2451 121.74 52.2451C120.814 52.2451 120.12 52.0817 119.657 51.7549C119.221 51.4008 119.003 50.7879 119.003 49.9163V41.214ZM136.849 44.891L136.645 41.3774L147.595 39.7432C147.513 38.7081 147.118 37.8093 146.41 37.0466C145.702 36.284 144.667 35.9027 143.305 35.9027C141.916 35.9027 140.758 36.3929 139.832 37.3735C138.906 38.3268 138.429 39.7023 138.402 41.5L138.525 43.6245C138.77 45.3677 139.437 46.6478 140.527 47.465C141.643 48.2821 143.046 48.6907 144.735 48.6907C145.879 48.6907 146.941 48.5272 147.921 48.2004C148.902 47.8463 149.678 47.465 150.25 47.0564C150.632 47.3015 150.931 47.6148 151.149 47.9961C151.394 48.3502 151.517 48.7451 151.517 49.1809C151.517 49.8891 151.204 50.5019 150.577 51.0195C149.951 51.5097 149.106 51.8911 148.044 52.1634C146.982 52.4358 145.77 52.572 144.408 52.572C142.311 52.572 140.445 52.1907 138.811 51.428C137.204 50.6381 135.937 49.4669 135.011 47.9144C134.112 46.3619 133.663 44.428 133.663 42.1128C133.663 40.4513 133.921 38.9941 134.439 37.7412C134.956 36.4883 135.651 35.4533 136.523 34.6361C137.421 33.7918 138.456 33.1653 139.628 32.7568C140.799 32.321 142.025 32.1031 143.305 32.1031C145.102 32.1031 146.669 32.4708 148.003 33.2062C149.365 33.9143 150.427 34.9085 151.19 36.1887C151.98 37.4688 152.375 38.9396 152.375 40.6011C152.375 41.3638 152.171 41.9358 151.762 42.3171C151.381 42.6712 150.836 42.8891 150.128 42.9708L136.849 44.891ZM174.282 39.3754V43.3385H169.257V39.5797C169.257 38.3813 168.916 37.5097 168.235 36.9649C167.554 36.3929 166.642 36.107 165.498 36.107C164.654 36.107 163.891 36.2159 163.21 36.4338C162.556 36.6245 161.971 36.856 161.453 37.1284V43.3385H156.428V36.8015C156.428 36.1478 156.564 35.6167 156.836 35.2081C157.109 34.7723 157.517 34.3774 158.062 34.0233C158.879 33.4785 159.928 33.0291 161.208 32.675C162.515 32.2937 163.959 32.1031 165.539 32.1031C168.29 32.1031 170.428 32.7159 171.953 33.9416C173.506 35.1673 174.282 36.9786 174.282 39.3754ZM156.428 41.3365H161.453V51.9183C161.235 52 160.922 52.0681 160.513 52.1226C160.105 52.2043 159.655 52.2451 159.165 52.2451C158.239 52.2451 157.545 52.0817 157.082 51.7549C156.646 51.4008 156.428 50.7879 156.428 49.9163V41.3365ZM169.257 41.3365H174.282V51.9183C174.091 52 173.778 52.0681 173.342 52.1226C172.934 52.2043 172.498 52.2451 172.035 52.2451C171.082 52.2451 170.373 52.0817 169.91 51.7549C169.475 51.4008 169.257 50.7879 169.257 49.9163V41.3365ZM192.357 47.751V34.9221H197.382V48.2821C197.382 48.8813 197.246 49.3852 196.974 49.7938C196.729 50.1751 196.32 50.5428 195.748 50.8969C195.094 51.3327 194.196 51.714 193.052 52.0409C191.935 52.3949 190.655 52.572 189.211 52.572C187.059 52.572 185.18 52.2179 183.573 51.5097C181.993 50.7743 180.767 49.6576 179.896 48.1595C179.024 46.6342 178.588 44.714 178.588 42.3988C178.588 40.0291 179.024 38.0817 179.896 36.5564C180.795 35.0311 181.993 33.9143 183.491 33.2062C184.989 32.4708 186.651 32.1031 188.476 32.1031C189.483 32.1031 190.396 32.2256 191.213 32.4708C192.057 32.7159 192.738 33.0019 193.256 33.3287V37.6186C192.82 37.2101 192.248 36.856 191.54 36.5564C190.832 36.2568 190.015 36.107 189.089 36.107C188.081 36.107 187.168 36.3249 186.351 36.7607C185.534 37.1692 184.894 37.8502 184.431 38.8035C183.968 39.7295 183.736 40.9416 183.736 42.4397C183.736 44.5642 184.227 46.1167 185.207 47.0973C186.188 48.0778 187.509 48.5681 189.17 48.5681C189.906 48.5681 190.532 48.4864 191.05 48.3229C191.567 48.1595 192.003 47.9689 192.357 47.751ZM197.382 35.9435L192.357 35.9844V25.4435C192.548 25.389 192.847 25.3209 193.256 25.2392C193.692 25.1575 194.141 25.1166 194.604 25.1166C195.585 25.1166 196.293 25.2937 196.729 25.6478C197.164 25.9746 197.382 26.5739 197.382 27.4455V35.9435ZM202.465 26.9143C202.465 26.1244 202.737 25.4571 203.282 24.9124C203.854 24.3676 204.562 24.0952 205.407 24.0952C206.278 24.0952 206.973 24.3676 207.49 24.9124C208.035 25.4571 208.308 26.1244 208.308 26.9143C208.308 27.677 208.035 28.3443 207.49 28.9163C206.973 29.461 206.278 29.7334 205.407 29.7334C204.562 29.7334 203.854 29.461 203.282 28.9163C202.737 28.3443 202.465 27.677 202.465 26.9143ZM202.874 41.214H207.94V51.9183C207.722 52 207.409 52.0681 207 52.1226C206.592 52.2043 206.142 52.2451 205.652 52.2451C204.726 52.2451 204.031 52.0817 203.568 51.7549C203.105 51.4008 202.874 50.7879 202.874 49.9163V41.214ZM207.94 43.7879H202.874V32.8385C203.092 32.7567 203.405 32.6887 203.813 32.6342C204.249 32.5525 204.712 32.5116 205.202 32.5116C206.156 32.5116 206.85 32.6887 207.286 33.0427C207.722 33.3696 207.94 33.9824 207.94 34.8813V43.7879Z" fill="#444444"/>
<path d="M217.49 37.8638V33.9416H225.702C225.811 34.1322 225.92 34.4046 226.029 34.7587C226.165 35.0856 226.233 35.4669 226.233 35.9027C226.233 36.5836 226.069 37.0875 225.743 37.4144C225.443 37.714 225.007 37.8638 224.435 37.8638H217.49ZM218.266 31.9805V37.2509H213.445V31.7762C213.445 30.0602 213.785 28.6711 214.466 27.6089C215.174 26.5194 216.141 25.7295 217.367 25.2392C218.62 24.7217 220.036 24.463 221.616 24.463C223.387 24.463 224.735 24.6945 225.661 25.1575C226.587 25.6205 227.05 26.3151 227.05 27.2412C227.05 27.6497 226.955 28.0311 226.764 28.3851C226.601 28.712 226.396 28.9844 226.151 29.2023C225.634 28.9844 225.048 28.8073 224.394 28.6711C223.768 28.5349 223.101 28.4669 222.392 28.4669C220.949 28.4669 219.9 28.7392 219.246 29.284C218.593 29.8287 218.266 30.7276 218.266 31.9805ZM213.445 35.821H218.47V51.9183C218.252 52 217.939 52.0681 217.53 52.1226C217.122 52.2043 216.672 52.2451 216.182 52.2451C215.256 52.2451 214.562 52.0817 214.099 51.7549C213.663 51.4008 213.445 50.7879 213.445 49.9163V35.821ZM233.354 47.3833C232.918 46.4844 232.414 45.3677 231.842 44.033C231.297 42.6712 230.726 41.105 230.126 39.3346C229.527 37.5369 228.914 35.5622 228.288 33.4104C228.587 33.0836 228.969 32.8112 229.432 32.5933C229.895 32.3754 230.399 32.2665 230.943 32.2665C231.652 32.2665 232.224 32.4299 232.659 32.7568C233.122 33.0564 233.476 33.6147 233.722 34.4319C234.43 36.5564 235.138 38.6537 235.846 40.7237C236.582 42.7937 237.358 44.9046 238.175 47.0564H238.338C238.856 45.858 239.373 44.4552 239.891 42.8482C240.408 41.214 240.899 39.5253 241.362 37.7821C241.852 36.0389 242.261 34.3774 242.587 32.7976C242.914 32.6342 243.255 32.5116 243.609 32.4299C243.963 32.321 244.344 32.2665 244.753 32.2665C245.434 32.2665 246.019 32.4299 246.51 32.7568C247.027 33.0564 247.286 33.5739 247.286 34.3093C247.286 34.963 247.163 35.8346 246.918 36.9241C246.7 37.9863 246.387 39.1712 245.978 40.4786C245.57 41.786 245.093 43.1478 244.549 44.5642C244.031 45.9805 243.473 47.356 242.873 48.6907C242.301 49.998 241.716 51.1829 241.117 52.2451C239.727 54.7237 238.447 56.5895 237.276 57.8424C236.105 59.1226 234.975 59.7627 233.885 59.7627C233.041 59.7627 232.346 59.5039 231.801 58.9864C231.284 58.4961 230.971 57.8833 230.862 57.1479C231.461 56.6304 232.087 56.0039 232.741 55.2685C233.422 54.5603 234.076 53.7977 234.702 52.9805C235.329 52.1634 235.86 51.3599 236.296 50.57C235.833 50.4338 235.369 50.1615 234.906 49.7529C234.443 49.3171 233.926 48.5272 233.354 47.3833Z" fill="#ff3e6c"/>
<path d="M105.697 67.2944C105.751 67.267 105.82 67.2429 105.902 67.2223C105.985 67.2018 106.071 67.1915 106.16 67.1915C106.297 67.1915 106.41 67.2155 106.5 67.2635C106.596 67.3047 106.658 67.3699 106.685 67.4592C106.857 67.9534 107.011 68.4133 107.148 68.8389C107.292 69.2577 107.426 69.6661 107.55 70.0642C107.68 70.4555 107.811 70.8605 107.941 71.2792H107.982C108.113 70.6614 108.24 70.0608 108.363 69.4773C108.487 68.887 108.607 68.2898 108.724 67.6857C108.84 67.0816 108.947 66.4364 109.043 65.7499C109.139 65.7019 109.256 65.6778 109.393 65.6778C109.523 65.6778 109.626 65.7087 109.702 65.7705C109.777 65.8254 109.815 65.9112 109.815 66.0279C109.815 66.1584 109.795 66.3574 109.753 66.6251C109.719 66.886 109.668 67.1949 109.599 67.5518C109.537 67.9019 109.462 68.276 109.372 68.6742C109.29 69.0655 109.201 69.4602 109.105 69.8583C109.009 70.2496 108.912 70.6202 108.816 70.9703C108.72 71.3204 108.628 71.6259 108.538 71.8867C108.477 71.9211 108.398 71.9554 108.302 71.9897C108.205 72.0172 108.096 72.0309 107.972 72.0309C107.821 72.0309 107.694 72.0069 107.591 71.9588C107.488 71.9108 107.419 71.8455 107.385 71.7632C107.289 71.5229 107.172 71.2072 107.035 70.8159C106.898 70.4177 106.754 69.9853 106.603 69.5185C106.458 69.0449 106.318 68.5781 106.18 68.1182C106.05 68.5712 105.909 69.0414 105.758 69.5288C105.607 70.0162 105.46 70.4692 105.316 70.888C105.178 71.3067 105.055 71.643 104.945 71.897C104.897 71.9245 104.821 71.9554 104.718 71.9897C104.622 72.0172 104.512 72.0309 104.389 72.0309C104.238 72.0309 104.111 72.0069 104.008 71.9588C103.912 71.9039 103.847 71.8387 103.812 71.7632C103.744 71.5916 103.658 71.3341 103.555 70.9909C103.459 70.6477 103.356 70.2564 103.246 69.8171C103.136 69.3709 103.026 68.911 102.916 68.4374C102.813 67.9568 102.714 67.4969 102.618 67.0576C102.529 66.6114 102.456 66.2167 102.402 65.8735C102.45 65.8254 102.515 65.7808 102.597 65.7396C102.68 65.6984 102.769 65.6778 102.865 65.6778C102.988 65.6778 103.085 65.7087 103.153 65.7705C103.222 65.8254 103.27 65.9215 103.297 66.0588C103.387 66.4913 103.472 66.91 103.555 67.315C103.637 67.72 103.72 68.1285 103.802 68.5403C103.891 68.9522 103.984 69.3846 104.08 69.8377C104.176 70.2839 104.282 70.7644 104.399 71.2792H104.44C104.536 70.9703 104.629 70.6752 104.718 70.3937C104.808 70.1123 104.9 69.824 104.996 69.5288C105.092 69.2268 105.195 68.8973 105.305 68.5403C105.422 68.1834 105.552 67.7681 105.697 67.2944ZM115.167 69.951H114.343V69.0037C114.343 68.5918 114.226 68.2863 113.993 68.0873C113.766 67.8882 113.471 67.7887 113.107 67.7887C112.84 67.7887 112.589 67.8401 112.356 67.9431C112.129 68.0461 111.937 68.1696 111.779 68.3138L111.625 67.6445C111.789 67.5278 112.006 67.4111 112.273 67.2944C112.548 67.1709 112.864 67.1091 113.221 67.1091C113.79 67.1091 114.257 67.2635 114.621 67.5724C114.985 67.8813 115.167 68.3515 115.167 68.9831V69.951ZM111.058 69.2817H111.882V71.9794C111.848 71.9931 111.796 72.0069 111.728 72.0206C111.659 72.0412 111.583 72.0515 111.501 72.0515C111.357 72.0515 111.247 72.024 111.172 71.9691C111.096 71.9073 111.058 71.8112 111.058 71.6808V69.2817ZM114.343 69.292L115.167 69.3023V71.9794C115.132 71.9931 115.077 72.0069 115.002 72.0206C114.933 72.0412 114.861 72.0515 114.786 72.0515C114.635 72.0515 114.521 72.024 114.446 71.9691C114.377 71.9073 114.343 71.8112 114.343 71.6808V69.292ZM111.882 69.6833H111.058V65.3278C111.093 65.314 111.144 65.3003 111.213 65.2866C111.288 65.266 111.367 65.2557 111.45 65.2557C111.594 65.2557 111.7 65.2866 111.769 65.3484C111.844 65.4033 111.882 65.4959 111.882 65.6264V69.6833ZM117.008 70.1466L116.966 69.4979L120.076 69.0757C120.049 68.6982 119.918 68.3893 119.685 68.149C119.451 67.9019 119.129 67.7784 118.717 67.7784C118.291 67.7784 117.938 67.9328 117.656 68.2417C117.382 68.5438 117.244 68.9796 117.244 69.5494V69.7759C117.292 70.3251 117.471 70.7438 117.78 71.0321C118.096 71.3136 118.525 71.4543 119.067 71.4543C119.355 71.4543 119.616 71.4062 119.849 71.3101C120.083 71.214 120.268 71.1111 120.405 71.0012C120.481 71.0493 120.539 71.1076 120.58 71.1763C120.629 71.238 120.653 71.3101 120.653 71.3925C120.653 71.5229 120.577 71.6465 120.426 71.7632C120.282 71.873 120.086 71.9622 119.839 72.0309C119.599 72.0995 119.328 72.1339 119.026 72.1339C118.497 72.1339 118.037 72.0378 117.646 71.8456C117.262 71.6533 116.963 71.3685 116.75 70.9909C116.544 70.6065 116.441 70.1397 116.441 69.5906C116.441 69.1993 116.496 68.8527 116.606 68.5506C116.723 68.2417 116.881 67.9809 117.08 67.7681C117.286 67.5553 117.529 67.394 117.811 67.2841C118.092 67.1674 118.398 67.1091 118.727 67.1091C119.146 67.1091 119.513 67.1983 119.829 67.3768C120.151 67.5553 120.402 67.8058 120.58 68.1285C120.766 68.4442 120.859 68.808 120.859 69.2199C120.859 69.3709 120.824 69.4807 120.756 69.5494C120.687 69.6112 120.591 69.6489 120.467 69.6627L117.008 70.1466ZM122.872 68.1285V69.7553H122.048V68.1902C122.048 68.0324 122.076 67.9088 122.131 67.8196C122.192 67.7235 122.292 67.6308 122.429 67.5415C122.608 67.4248 122.851 67.3253 123.16 67.2429C123.469 67.1537 123.812 67.1091 124.19 67.1091C124.739 67.1091 125.014 67.2464 125.014 67.5209C125.014 67.5896 125.003 67.6548 124.983 67.7166C124.962 67.7715 124.935 67.8196 124.901 67.8607C124.832 67.847 124.743 67.8333 124.633 67.8196C124.523 67.8058 124.413 67.799 124.303 67.799C123.988 67.799 123.71 67.8333 123.469 67.9019C123.229 67.9637 123.03 68.0392 122.872 68.1285ZM122.048 69.2817L122.872 69.4052V71.9794C122.838 71.9931 122.786 72.0069 122.718 72.0206C122.649 72.0412 122.573 72.0515 122.491 72.0515C122.347 72.0515 122.237 72.024 122.162 71.9691C122.086 71.9073 122.048 71.8112 122.048 71.6808V69.2817ZM126.178 70.1466L126.137 69.4979L129.246 69.0757C129.219 68.6982 129.089 68.3893 128.855 68.149C128.622 67.9019 128.299 67.7784 127.887 67.7784C127.462 67.7784 127.108 67.9328 126.827 68.2417C126.552 68.5438 126.415 68.9796 126.415 69.5494V69.7759C126.463 70.3251 126.641 70.7438 126.95 71.0321C127.266 71.3136 127.695 71.4543 128.237 71.4543C128.526 71.4543 128.787 71.4062 129.02 71.3101C129.253 71.214 129.439 71.1111 129.576 71.0012C129.651 71.0493 129.71 71.1076 129.751 71.1763C129.799 71.238 129.823 71.3101 129.823 71.3925C129.823 71.5229 129.748 71.6465 129.597 71.7632C129.452 71.873 129.257 71.9622 129.01 72.0309C128.769 72.0995 128.498 72.1339 128.196 72.1339C127.668 72.1339 127.208 72.0378 126.816 71.8456C126.432 71.6533 126.133 71.3685 125.921 70.9909C125.715 70.6065 125.612 70.1397 125.612 69.5906C125.612 69.1993 125.667 68.8527 125.776 68.5506C125.893 68.2417 126.051 67.9809 126.25 67.7681C126.456 67.5553 126.7 67.394 126.981 67.2841C127.263 67.1674 127.568 67.1091 127.898 67.1091C128.316 67.1091 128.684 67.1983 128.999 67.3768C129.322 67.5553 129.572 67.8058 129.751 68.1285C129.936 68.4442 130.029 68.808 130.029 69.2199C130.029 69.3709 129.995 69.4807 129.926 69.5494C129.857 69.6112 129.761 69.6489 129.638 69.6627L126.178 70.1466ZM135.154 71.4337C135.614 71.4337 135.961 71.3307 136.194 71.1248C136.434 70.912 136.554 70.6408 136.554 70.3113C136.554 70.0299 136.462 69.7965 136.276 69.6112C136.098 69.4258 135.813 69.2782 135.422 69.1684L134.526 68.9007C134.238 68.8115 133.987 68.6982 133.774 68.5609C133.562 68.4168 133.397 68.2417 133.28 68.0358C133.17 67.823 133.115 67.5759 133.115 67.2944C133.115 66.7659 133.308 66.354 133.692 66.0588C134.076 65.7568 134.588 65.6058 135.226 65.6058C135.597 65.6058 135.926 65.647 136.215 65.7293C136.51 65.8048 136.74 65.9044 136.905 66.0279C137.076 66.1515 137.162 66.2819 137.162 66.4192C137.162 66.5084 137.138 66.5908 137.09 66.6663C137.042 66.735 136.98 66.7899 136.905 66.8311C136.733 66.6938 136.5 66.5737 136.204 66.4707C135.916 66.3677 135.6 66.3162 135.257 66.3162C134.859 66.3162 134.543 66.4055 134.31 66.584C134.076 66.7556 133.96 66.9924 133.96 67.2944C133.96 67.5347 134.042 67.7303 134.207 67.8813C134.378 68.0324 134.653 68.1628 135.031 68.2726L135.659 68.4579C136.201 68.609 136.627 68.8286 136.935 69.1169C137.251 69.4052 137.409 69.8034 137.409 70.3113C137.409 70.8536 137.21 71.293 136.812 71.6293C136.421 71.9657 135.868 72.1339 135.154 72.1339C134.735 72.1339 134.368 72.0892 134.052 72C133.743 71.9039 133.5 71.7872 133.321 71.6499C133.15 71.5058 133.064 71.365 133.064 71.2278C133.064 71.1111 133.098 71.015 133.167 70.9394C133.242 70.8571 133.328 70.7987 133.424 70.7644C133.582 70.9154 133.805 71.0664 134.094 71.2175C134.382 71.3616 134.735 71.4337 135.154 71.4337ZM138.68 69.2817H139.504V70.7026C139.504 70.9772 139.583 71.1728 139.741 71.2895C139.899 71.3994 140.115 71.4543 140.389 71.4543C140.506 71.4543 140.636 71.4337 140.781 71.3925C140.925 71.3513 141.045 71.3033 141.141 71.2483C141.182 71.2895 141.22 71.341 141.254 71.4028C141.289 71.4646 141.306 71.5367 141.306 71.619C141.306 71.77 141.217 71.8936 141.038 71.9897C140.86 72.0858 140.612 72.1339 140.297 72.1339C139.816 72.1339 139.425 72.0275 139.123 71.8147C138.828 71.6019 138.68 71.2483 138.68 70.7541V69.2817ZM139.102 68.0255V67.3459H141.192C141.213 67.3734 141.234 67.418 141.254 67.4798C141.275 67.5415 141.285 67.6068 141.285 67.6754C141.285 67.7852 141.258 67.871 141.203 67.9328C141.148 67.9946 141.072 68.0255 140.976 68.0255H139.102ZM139.504 69.5906H138.68V65.8632C138.714 65.8495 138.766 65.8357 138.835 65.822C138.91 65.8014 138.989 65.7911 139.071 65.7911C139.216 65.7911 139.322 65.822 139.391 65.8838C139.466 65.9387 139.504 66.0314 139.504 66.1618V69.5906ZM143.509 70.9394C143.392 70.7198 143.252 70.4246 143.087 70.0539C142.922 69.6764 142.75 69.2577 142.572 68.7977C142.4 68.331 142.236 67.8573 142.078 67.3768C142.126 67.3082 142.188 67.2532 142.263 67.212C142.345 67.1709 142.431 67.1503 142.521 67.1503C142.637 67.1503 142.733 67.1812 142.809 67.2429C142.884 67.3047 142.946 67.4077 142.994 67.5518C143.2 68.1285 143.416 68.7016 143.643 69.2714C143.869 69.8411 144.12 70.4315 144.395 71.0424H144.436C144.58 70.7541 144.731 70.3937 144.889 69.9613C145.047 69.5288 145.198 69.0723 145.342 68.5918C145.486 68.1113 145.606 67.6582 145.702 67.2326C145.75 67.2121 145.802 67.1949 145.857 67.1812C145.918 67.1606 145.984 67.1503 146.052 67.1503C146.169 67.1503 146.265 67.1812 146.341 67.2429C146.416 67.2979 146.454 67.3837 146.454 67.5004C146.454 67.6102 146.423 67.7955 146.361 68.0564C146.299 68.3104 146.214 68.609 146.104 68.9522C146.001 69.2885 145.877 69.6489 145.733 70.0333C145.596 70.4109 145.445 70.785 145.28 71.1557C145.122 71.5195 144.961 71.849 144.796 72.1442C144.48 72.7276 144.192 73.1738 143.931 73.4827C143.67 73.7985 143.43 73.9564 143.21 73.9564C143.053 73.9564 142.929 73.9152 142.84 73.8328C142.757 73.7504 142.706 73.6543 142.685 73.5445C142.836 73.4141 143.004 73.239 143.19 73.0194C143.382 72.8066 143.564 72.5732 143.736 72.3192C143.914 72.0721 144.058 71.8353 144.168 71.6087C144.051 71.5744 143.941 71.5126 143.838 71.4234C143.742 71.3341 143.633 71.1728 143.509 70.9394ZM147.661 69.2817L148.485 69.4052V71.9794C148.451 71.9931 148.399 72.0069 148.33 72.0206C148.262 72.0412 148.186 72.0515 148.104 72.0515C147.96 72.0515 147.85 72.024 147.774 71.9691C147.699 71.9073 147.661 71.8112 147.661 71.6808V69.2817ZM148.485 69.7965L147.661 69.6833V65.3278C147.696 65.314 147.747 65.3003 147.816 65.2866C147.891 65.266 147.967 65.2557 148.042 65.2557C148.193 65.2557 148.303 65.2866 148.372 65.3484C148.447 65.4033 148.485 65.4959 148.485 65.6264V69.7965ZM150.411 70.1466L150.37 69.4979L153.48 69.0757C153.452 68.6982 153.322 68.3893 153.089 68.149C152.855 67.9019 152.532 67.7784 152.121 67.7784C151.695 67.7784 151.342 67.9328 151.06 68.2417C150.785 68.5438 150.648 68.9796 150.648 69.5494V69.7759C150.696 70.3251 150.875 70.7438 151.184 71.0321C151.499 71.3136 151.928 71.4543 152.471 71.4543C152.759 71.4543 153.02 71.4062 153.253 71.3101C153.487 71.214 153.672 71.1111 153.809 71.0012C153.885 71.0493 153.943 71.1076 153.984 71.1763C154.032 71.238 154.056 71.3101 154.056 71.3925C154.056 71.5229 153.981 71.6465 153.83 71.7632C153.686 71.873 153.49 71.9622 153.243 72.0309C153.003 72.0995 152.732 72.1339 152.43 72.1339C151.901 72.1339 151.441 72.0378 151.05 71.8456C150.665 71.6533 150.367 71.3685 150.154 70.9909C149.948 70.6065 149.845 70.1397 149.845 69.5906C149.845 69.1993 149.9 68.8527 150.01 68.5506C150.127 68.2417 150.284 67.9809 150.483 67.7681C150.689 67.5553 150.933 67.394 151.215 67.2841C151.496 67.1674 151.801 67.1091 152.131 67.1091C152.55 67.1091 152.917 67.1983 153.233 67.3768C153.555 67.5553 153.806 67.8058 153.984 68.1285C154.17 68.4442 154.262 68.808 154.262 69.2199C154.262 69.3709 154.228 69.4807 154.159 69.5494C154.091 69.6112 153.995 69.6489 153.871 69.6627L150.411 70.1466ZM161.22 70.3731C161.172 70.4074 161.107 70.4383 161.025 70.4658C160.949 70.4933 160.863 70.507 160.767 70.507C160.657 70.507 160.558 70.4898 160.469 70.4555C160.386 70.4212 160.328 70.3663 160.294 70.2908C159.93 69.5219 159.611 68.8183 159.336 68.1799C159.068 67.5415 158.852 67.013 158.687 66.5942H158.646C158.626 67.1091 158.602 67.5896 158.574 68.0358C158.553 68.482 158.529 68.9144 158.502 69.3332C158.475 69.745 158.447 70.1706 158.42 70.61C158.399 71.0424 158.372 71.5058 158.337 72C158.296 72.0137 158.241 72.0275 158.172 72.0412C158.111 72.0549 158.042 72.0618 157.967 72.0618C157.816 72.0618 157.709 72.0309 157.647 71.9691C157.586 71.9005 157.555 71.8112 157.555 71.7014C157.555 71.619 157.562 71.4303 157.575 71.1351C157.596 70.833 157.616 70.4658 157.637 70.0333C157.665 69.6009 157.695 69.141 157.73 68.6536C157.764 68.1593 157.798 67.6754 157.833 67.2018C157.874 66.7212 157.912 66.2888 157.946 65.9044C158.001 65.8563 158.08 65.8117 158.183 65.7705C158.286 65.7293 158.402 65.7087 158.533 65.7087C158.691 65.7087 158.825 65.7396 158.934 65.8014C159.044 65.8632 159.13 65.9593 159.192 66.0897C159.37 66.4398 159.549 66.8208 159.727 67.2326C159.906 67.6445 160.081 68.0564 160.252 68.4682C160.424 68.8801 160.589 69.268 160.747 69.6318H160.788C161.09 68.9041 161.388 68.204 161.684 67.5312C161.986 66.8585 162.24 66.2854 162.446 65.8117C162.507 65.7774 162.586 65.7534 162.682 65.7396C162.779 65.719 162.868 65.7087 162.95 65.7087C163.108 65.7087 163.232 65.7362 163.321 65.7911C163.417 65.8392 163.479 65.9215 163.506 66.0382C163.534 66.1549 163.565 66.354 163.599 66.6354C163.633 66.9169 163.667 67.2498 163.702 67.6342C163.736 68.0118 163.767 68.4099 163.794 68.8286C163.829 69.2474 163.86 69.6592 163.887 70.0642C163.915 70.4692 163.939 70.8365 163.959 71.166C163.987 71.4886 164.004 71.746 164.011 71.9382C163.949 71.9794 163.884 72.0103 163.815 72.0309C163.746 72.0515 163.667 72.0618 163.578 72.0618C163.475 72.0618 163.383 72.0378 163.3 71.9897C163.225 71.9348 163.18 71.8387 163.166 71.7014C163.125 71.0355 163.084 70.38 163.043 69.7347C163.008 69.0826 162.978 68.4854 162.95 67.9431C162.923 67.4008 162.899 66.9581 162.878 66.6148H162.837C162.686 66.9924 162.48 67.4798 162.219 68.077C161.958 68.6673 161.625 69.4327 161.22 70.3731ZM165.806 70.1466L165.765 69.4979L168.875 69.0757C168.847 68.6982 168.717 68.3893 168.483 68.149C168.25 67.9019 167.927 67.7784 167.515 67.7784C167.09 67.7784 166.736 67.9328 166.455 68.2417C166.18 68.5438 166.043 68.9796 166.043 69.5494V69.7759C166.091 70.3251 166.269 70.7438 166.578 71.0321C166.894 71.3136 167.323 71.4543 167.865 71.4543C168.154 71.4543 168.415 71.4062 168.648 71.3101C168.881 71.214 169.067 71.1111 169.204 71.0012C169.28 71.0493 169.338 71.1076 169.379 71.1763C169.427 71.238 169.451 71.3101 169.451 71.3925C169.451 71.5229 169.376 71.6465 169.225 71.7632C169.08 71.873 168.885 71.9622 168.638 72.0309C168.397 72.0995 168.126 72.1339 167.824 72.1339C167.296 72.1339 166.836 72.0378 166.445 71.8456C166.06 71.6533 165.761 71.3685 165.549 70.9909C165.343 70.6065 165.24 70.1397 165.24 69.5906C165.24 69.1993 165.295 68.8527 165.405 68.5506C165.521 68.2417 165.679 67.9809 165.878 67.7681C166.084 67.5553 166.328 67.394 166.609 67.2841C166.891 67.1674 167.196 67.1091 167.526 67.1091C167.944 67.1091 168.312 67.1983 168.627 67.3768C168.95 67.5553 169.201 67.8058 169.379 68.1285C169.564 68.4442 169.657 68.808 169.657 69.2199C169.657 69.3709 169.623 69.4807 169.554 69.5494C169.485 69.6112 169.389 69.6489 169.266 69.6627L165.806 70.1466ZM171.145 70.1466L171.104 69.4979L174.214 69.0757C174.186 68.6982 174.056 68.3893 173.823 68.149C173.589 67.9019 173.267 67.7784 172.855 67.7784C172.429 67.7784 172.076 67.9328 171.794 68.2417C171.52 68.5438 171.382 68.9796 171.382 69.5494V69.7759C171.43 70.3251 171.609 70.7438 171.918 71.0321C172.234 71.3136 172.663 71.4543 173.205 71.4543C173.493 71.4543 173.754 71.4062 173.987 71.3101C174.221 71.214 174.406 71.1111 174.543 71.0012C174.619 71.0493 174.677 71.1076 174.718 71.1763C174.766 71.238 174.791 71.3101 174.791 71.3925C174.791 71.5229 174.715 71.6465 174.564 71.7632C174.42 71.873 174.224 71.9622 173.977 72.0309C173.737 72.0995 173.466 72.1339 173.164 72.1339C172.635 72.1339 172.175 72.0378 171.784 71.8456C171.399 71.6533 171.101 71.3685 170.888 70.9909C170.682 70.6065 170.579 70.1397 170.579 69.5906C170.579 69.1993 170.634 68.8527 170.744 68.5506C170.861 68.2417 171.018 67.9809 171.218 67.7681C171.424 67.5553 171.667 67.394 171.949 67.2841C172.23 67.1674 172.536 67.1091 172.865 67.1091C173.284 67.1091 173.651 67.1983 173.967 67.3768C174.289 67.5553 174.54 67.8058 174.718 68.1285C174.904 68.4442 174.996 68.808 174.996 69.2199C174.996 69.3709 174.962 69.4807 174.893 69.5494C174.825 69.6112 174.729 69.6489 174.605 69.6627L171.145 70.1466ZM176.197 69.2817H177.02V70.7026C177.02 70.9772 177.099 71.1728 177.257 71.2895C177.415 71.3994 177.631 71.4543 177.906 71.4543C178.023 71.4543 178.153 71.4337 178.297 71.3925C178.441 71.3513 178.561 71.3033 178.657 71.2483C178.699 71.2895 178.736 71.341 178.771 71.4028C178.805 71.4646 178.822 71.5367 178.822 71.619C178.822 71.77 178.733 71.8936 178.555 71.9897C178.376 72.0858 178.129 72.1339 177.813 72.1339C177.333 72.1339 176.941 72.0275 176.639 71.8147C176.344 71.6019 176.197 71.2483 176.197 70.7541V69.2817ZM176.619 68.0255V67.3459H178.709C178.73 67.3734 178.75 67.418 178.771 67.4798C178.791 67.5415 178.802 67.6068 178.802 67.6754C178.802 67.7852 178.774 67.871 178.719 67.9328C178.664 67.9946 178.589 68.0255 178.493 68.0255H176.619ZM177.02 69.5906H176.197V65.8632C176.231 65.8495 176.282 65.8357 176.351 65.822C176.427 65.8014 176.505 65.7911 176.588 65.7911C176.732 65.7911 176.838 65.822 176.907 65.8838C176.983 65.9387 177.02 66.0314 177.02 66.1618V69.5906ZM183.444 70.7335C183.444 71.1728 183.283 71.5161 182.961 71.7632C182.638 72.0103 182.171 72.1339 181.56 72.1339C181.038 72.1339 180.613 72.0549 180.283 71.897C179.954 71.7323 179.789 71.5538 179.789 71.3616C179.789 71.2792 179.81 71.2003 179.851 71.1248C179.899 71.0424 179.968 70.9772 180.057 70.9291C180.242 71.0596 180.458 71.1797 180.706 71.2895C180.953 71.3994 181.234 71.4543 181.55 71.4543C182.264 71.4543 182.621 71.214 182.621 70.7335C182.621 70.5344 182.559 70.3731 182.435 70.2496C182.319 70.1191 182.144 70.0265 181.91 69.9716L181.056 69.745C180.637 69.6421 180.331 69.4842 180.139 69.2714C179.947 69.0517 179.851 68.7806 179.851 68.4579C179.851 68.0941 179.999 67.7784 180.294 67.5107C180.589 67.2429 181.038 67.1091 181.643 67.1091C181.965 67.1091 182.247 67.1434 182.487 67.212C182.727 67.2738 182.912 67.3596 183.043 67.4695C183.18 67.5724 183.249 67.6857 183.249 67.8093C183.249 67.8985 183.225 67.9774 183.177 68.0461C183.136 68.1147 183.077 68.1662 183.002 68.2005C182.919 68.1456 182.813 68.0873 182.683 68.0255C182.559 67.9568 182.411 67.9019 182.24 67.8607C182.068 67.8127 181.879 67.7887 181.673 67.7887C181.371 67.7887 181.128 67.847 180.942 67.9637C180.757 68.0804 180.664 68.2451 180.664 68.4579C180.664 68.609 180.716 68.7428 180.819 68.8595C180.929 68.9693 181.1 69.0517 181.334 69.1066L182.044 69.2817C182.511 69.3915 182.861 69.5666 183.094 69.8068C183.328 70.0402 183.444 70.3491 183.444 70.7335ZM191.47 66.4295C191.47 66.5187 191.439 66.6011 191.378 66.6766C191.323 66.7453 191.258 66.7968 191.182 66.8311C191.01 66.7075 190.801 66.5908 190.554 66.481C190.314 66.3712 190.001 66.3162 189.617 66.3162C189.198 66.3162 188.821 66.4123 188.484 66.6045C188.155 66.7968 187.891 67.0851 187.691 67.4695C187.499 67.847 187.403 68.3172 187.403 68.8801C187.403 69.7244 187.609 70.3594 188.021 70.785C188.44 71.2106 188.982 71.4234 189.648 71.4234C190.005 71.4234 190.317 71.3719 190.585 71.2689C190.853 71.166 191.072 71.0493 191.244 70.9189C191.312 70.9463 191.378 70.9978 191.439 71.0733C191.501 71.1419 191.532 71.2243 191.532 71.3204C191.532 71.3891 191.511 71.4577 191.47 71.5264C191.436 71.5881 191.374 71.6499 191.285 71.7117C191.127 71.8215 190.911 71.9176 190.636 72C190.362 72.0892 190.012 72.1339 189.586 72.1339C189.016 72.1339 188.498 72.0137 188.031 71.7735C187.571 71.5264 187.207 71.1625 186.94 70.682C186.672 70.2015 186.538 69.6009 186.538 68.8801C186.538 68.1593 186.675 67.5553 186.95 67.0679C187.232 66.5805 187.599 66.2167 188.052 65.9764C188.512 65.7293 189.013 65.6058 189.555 65.6058C189.933 65.6058 190.266 65.647 190.554 65.7293C190.842 65.8117 191.065 65.9181 191.223 66.0485C191.388 66.1721 191.47 66.2991 191.47 66.4295ZM196.964 69.6215C196.964 70.1294 196.867 70.5722 196.675 70.9497C196.483 71.3273 196.212 71.619 195.862 71.825C195.512 72.0309 195.1 72.1339 194.626 72.1339C194.153 72.1339 193.737 72.0309 193.38 71.825C193.03 71.619 192.759 71.3273 192.567 70.9497C192.375 70.5722 192.279 70.1294 192.279 69.6215C192.279 69.1066 192.375 68.6639 192.567 68.2932C192.766 67.9157 193.041 67.6239 193.391 67.418C193.748 67.2121 194.159 67.1091 194.626 67.1091C195.093 67.1091 195.501 67.2121 195.852 67.418C196.202 67.6239 196.473 67.9157 196.665 68.2932C196.864 68.6639 196.964 69.1066 196.964 69.6215ZM194.626 67.7887C194.166 67.7887 193.799 67.9534 193.524 68.2829C193.257 68.6055 193.123 69.0517 193.123 69.6215C193.123 70.1981 193.253 70.6477 193.514 70.9703C193.782 71.293 194.153 71.4543 194.626 71.4543C195.093 71.4543 195.457 71.293 195.718 70.9703C195.985 70.6408 196.119 70.1912 196.119 69.6215C196.119 69.0517 195.985 68.6055 195.718 68.2829C195.457 67.9534 195.093 67.7887 194.626 67.7887ZM202.356 68.8595V69.9098H201.533V68.9007C201.533 68.5163 201.423 68.2349 201.203 68.0564C200.99 67.8779 200.702 67.7887 200.338 67.7887C200.064 67.7887 199.82 67.823 199.607 67.8916C199.394 67.9603 199.212 68.0392 199.061 68.1285V69.9098H198.238V68.1696C198.238 68.0255 198.265 67.9088 198.32 67.8196C198.382 67.7235 198.485 67.6308 198.629 67.5415C198.807 67.4386 199.044 67.3425 199.339 67.2532C199.635 67.1571 199.967 67.1091 200.338 67.1091C200.963 67.1091 201.454 67.2532 201.811 67.5415C202.174 67.823 202.356 68.2623 202.356 68.8595ZM198.238 69.3435H199.061V71.9794C199.027 71.9931 198.976 72.0069 198.907 72.0206C198.838 72.0412 198.763 72.0515 198.68 72.0515C198.536 72.0515 198.426 72.024 198.351 71.9691C198.275 71.9073 198.238 71.8112 198.238 71.6808V69.3435ZM201.533 69.3435H202.356V71.9794C202.322 71.9931 202.267 72.0069 202.192 72.0206C202.123 72.0412 202.051 72.0515 201.975 72.0515C201.824 72.0515 201.711 72.024 201.636 71.9691C201.567 71.9073 201.533 71.8112 201.533 71.6808V69.3435ZM207.331 67.1503C207.447 67.1503 207.54 67.1812 207.609 67.2429C207.684 67.3047 207.722 67.394 207.722 67.5107C207.722 67.5999 207.684 67.7681 207.609 68.0152C207.533 68.2623 207.434 68.5575 207.31 68.9007C207.187 69.2439 207.049 69.6043 206.898 69.9819C206.754 70.3525 206.603 70.7129 206.445 71.063C206.294 71.4062 206.153 71.7048 206.023 71.9588C205.989 71.9863 205.927 72.0103 205.838 72.0309C205.755 72.0515 205.666 72.0618 205.57 72.0618C205.453 72.0618 205.35 72.0412 205.261 72C205.172 71.9657 205.11 71.9142 205.076 71.8456C205 71.7083 204.901 71.5092 204.777 71.2483C204.66 70.9806 204.533 70.6786 204.396 70.3422C204.259 70.0059 204.118 69.6592 203.974 69.3023C203.837 68.9385 203.71 68.5918 203.593 68.2623C203.476 67.926 203.38 67.6308 203.305 67.3768C203.353 67.3082 203.418 67.2532 203.5 67.212C203.583 67.1709 203.665 67.1503 203.747 67.1503C203.871 67.1503 203.967 67.1812 204.036 67.2429C204.104 67.3047 204.163 67.4077 204.211 67.5518L204.849 69.3949C204.904 69.5528 204.976 69.7485 205.065 69.9819C205.155 70.2152 205.244 70.4486 205.333 70.682C205.422 70.9154 205.494 71.1111 205.549 71.2689H205.591C205.865 70.5756 206.123 69.8926 206.363 69.2199C206.603 68.5403 206.809 67.8779 206.981 67.2326C207.07 67.1777 207.187 67.1503 207.331 67.1503ZM209.084 70.1466L209.043 69.4979L212.153 69.0757C212.125 68.6982 211.995 68.3893 211.761 68.149C211.528 67.9019 211.205 67.7784 210.794 67.7784C210.368 67.7784 210.014 67.9328 209.733 68.2417C209.458 68.5438 209.321 68.9796 209.321 69.5494V69.7759C209.369 70.3251 209.548 70.7438 209.857 71.0321C210.172 71.3136 210.601 71.4543 211.144 71.4543C211.432 71.4543 211.693 71.4062 211.926 71.3101C212.16 71.214 212.345 71.1111 212.482 71.0012C212.558 71.0493 212.616 71.1076 212.657 71.1763C212.705 71.238 212.729 71.3101 212.729 71.3925C212.729 71.5229 212.654 71.6465 212.503 71.7632C212.359 71.873 212.163 71.9622 211.916 72.0309C211.676 72.0995 211.404 72.1339 211.102 72.1339C210.574 72.1339 210.114 72.0378 209.723 71.8456C209.338 71.6533 209.04 71.3685 208.827 70.9909C208.621 70.6065 208.518 70.1397 208.518 69.5906C208.518 69.1993 208.573 68.8527 208.683 68.5506C208.799 68.2417 208.957 67.9809 209.156 67.7681C209.362 67.5553 209.606 67.394 209.887 67.2841C210.169 67.1674 210.474 67.1091 210.804 67.1091C211.223 67.1091 211.59 67.1983 211.906 67.3768C212.228 67.5553 212.479 67.8058 212.657 68.1285C212.843 68.4442 212.935 68.808 212.935 69.2199C212.935 69.3709 212.901 69.4807 212.832 69.5494C212.764 69.6112 212.668 69.6489 212.544 69.6627L209.084 70.1466ZM218.244 68.8595V69.9098H217.42V68.9007C217.42 68.5163 217.31 68.2349 217.091 68.0564C216.878 67.8779 216.589 67.7887 216.226 67.7887C215.951 67.7887 215.707 67.823 215.495 67.8916C215.282 67.9603 215.1 68.0392 214.949 68.1285V69.9098H214.125V68.1696C214.125 68.0255 214.153 67.9088 214.207 67.8196C214.269 67.7235 214.372 67.6308 214.516 67.5415C214.695 67.4386 214.932 67.3425 215.227 67.2532C215.522 67.1571 215.855 67.1091 216.226 67.1091C216.85 67.1091 217.341 67.2532 217.698 67.5415C218.062 67.823 218.244 68.2623 218.244 68.8595ZM214.125 69.3435H214.949V71.9794C214.914 71.9931 214.863 72.0069 214.794 72.0206C214.726 72.0412 214.65 72.0515 214.568 72.0515C214.424 72.0515 214.314 72.024 214.238 71.9691C214.163 71.9073 214.125 71.8112 214.125 71.6808V69.3435ZM217.42 69.3435H218.244V71.9794C218.209 71.9931 218.154 72.0069 218.079 72.0206C218.01 72.0412 217.938 72.0515 217.863 72.0515C217.712 72.0515 217.598 72.024 217.523 71.9691C217.454 71.9073 217.42 71.8112 217.42 71.6808V69.3435ZM219.714 65.7396C219.714 65.5955 219.766 65.4753 219.869 65.3792C219.972 65.2763 220.099 65.2248 220.25 65.2248C220.407 65.2248 220.534 65.2763 220.631 65.3792C220.727 65.4753 220.775 65.5955 220.775 65.7396C220.775 65.8838 220.727 66.0073 220.631 66.1103C220.534 66.2064 220.407 66.2545 220.25 66.2545C220.099 66.2545 219.972 66.2064 219.869 66.1103C219.766 66.0073 219.714 65.8838 219.714 65.7396ZM219.838 69.2817H220.661V71.9794C220.627 71.9931 220.576 72.0069 220.507 72.0206C220.438 72.0412 220.363 72.0515 220.28 72.0515C220.136 72.0515 220.026 72.024 219.951 71.9691C219.875 71.9073 219.838 71.8112 219.838 71.6808V69.2817ZM220.661 69.6833H219.838V67.2635C219.872 67.2498 219.924 67.2361 219.992 67.2223C220.068 67.2018 220.147 67.1915 220.229 67.1915C220.373 67.1915 220.48 67.2223 220.548 67.2841C220.624 67.339 220.661 67.4351 220.661 67.5724V69.6833ZM222.568 70.1466L222.527 69.4979L225.637 69.0757C225.609 68.6982 225.479 68.3893 225.246 68.149C225.012 67.9019 224.69 67.7784 224.278 67.7784C223.852 67.7784 223.499 67.9328 223.217 68.2417C222.943 68.5438 222.805 68.9796 222.805 69.5494V69.7759C222.853 70.3251 223.032 70.7438 223.341 71.0321C223.657 71.3136 224.086 71.4543 224.628 71.4543C224.916 71.4543 225.177 71.4062 225.41 71.3101C225.644 71.214 225.829 71.1111 225.966 71.0012C226.042 71.0493 226.1 71.1076 226.141 71.1763C226.189 71.238 226.214 71.3101 226.214 71.3925C226.214 71.5229 226.138 71.6465 225.987 71.7632C225.843 71.873 225.647 71.9622 225.4 72.0309C225.16 72.0995 224.889 72.1339 224.587 72.1339C224.058 72.1339 223.598 72.0378 223.207 71.8456C222.822 71.6533 222.524 71.3685 222.311 70.9909C222.105 70.6065 222.002 70.1397 222.002 69.5906C222.002 69.1993 222.057 68.8527 222.167 68.5506C222.284 68.2417 222.441 67.9809 222.641 67.7681C222.846 67.5553 223.09 67.394 223.372 67.2841C223.653 67.1674 223.959 67.1091 224.288 67.1091C224.707 67.1091 225.074 67.1983 225.39 67.3768C225.712 67.5553 225.963 67.8058 226.141 68.1285C226.327 68.4442 226.419 68.808 226.419 69.2199C226.419 69.3709 226.385 69.4807 226.316 69.5494C226.248 69.6112 226.152 69.6489 226.028 69.6627L222.568 70.1466ZM231.728 68.8595V69.9098H230.904V68.9007C230.904 68.5163 230.794 68.2349 230.575 68.0564C230.362 67.8779 230.074 67.7887 229.71 67.7887C229.435 67.7887 229.192 67.823 228.979 67.8916C228.766 67.9603 228.584 68.0392 228.433 68.1285V69.9098H227.609V68.1696C227.609 68.0255 227.637 67.9088 227.692 67.8196C227.753 67.7235 227.856 67.6308 228.001 67.5415C228.179 67.4386 228.416 67.3425 228.711 67.2532C229.006 67.1571 229.339 67.1091 229.71 67.1091C230.334 67.1091 230.825 67.2532 231.182 67.5415C231.546 67.823 231.728 68.2623 231.728 68.8595ZM227.609 69.3435H228.433V71.9794C228.399 71.9931 228.347 72.0069 228.279 72.0206C228.21 72.0412 228.134 72.0515 228.052 72.0515C227.908 72.0515 227.798 72.024 227.723 71.9691C227.647 71.9073 227.609 71.8112 227.609 71.6808V69.3435ZM230.904 69.3435H231.728V71.9794C231.694 71.9931 231.639 72.0069 231.563 72.0206C231.495 72.0412 231.422 72.0515 231.347 72.0515C231.196 72.0515 231.083 72.024 231.007 71.9691C230.939 71.9073 230.904 71.8112 230.904 71.6808V69.3435ZM235.474 67.799C235.007 67.799 234.619 67.9568 234.31 68.2726C234.001 68.5884 233.847 69.0414 233.847 69.6318C233.847 70.2152 233.995 70.6649 234.29 70.9806C234.592 71.2964 234.987 71.4543 235.474 71.4543C235.762 71.4543 236.002 71.4165 236.195 71.341C236.387 71.2586 236.559 71.166 236.71 71.063C236.785 71.1042 236.847 71.1557 236.895 71.2175C236.943 71.2792 236.967 71.3547 236.967 71.444C236.967 71.6362 236.823 71.8009 236.534 71.9382C236.253 72.0686 235.9 72.1339 235.474 72.1339C235 72.1339 234.575 72.0446 234.197 71.8661C233.826 71.6808 233.535 71.4028 233.322 71.0321C233.109 70.6614 233.003 70.1947 233.003 69.6318C233.003 69.0757 233.113 68.6124 233.332 68.2417C233.552 67.8642 233.847 67.5827 234.218 67.3974C234.595 67.2052 235.007 67.1091 235.453 67.1091C235.879 67.1091 236.229 67.1812 236.504 67.3253C236.785 67.4695 236.926 67.6342 236.926 67.8196C236.926 67.9019 236.902 67.974 236.854 68.0358C236.806 68.0976 236.744 68.1456 236.668 68.1799C236.517 68.077 236.349 67.9877 236.164 67.9122C235.985 67.8367 235.755 67.799 235.474 67.799ZM238.365 70.1466L238.324 69.4979L241.434 69.0757C241.406 68.6982 241.276 68.3893 241.043 68.149C240.809 67.9019 240.487 67.7784 240.075 67.7784C239.649 67.7784 239.296 67.9328 239.014 68.2417C238.74 68.5438 238.602 68.9796 238.602 69.5494V69.7759C238.65 70.3251 238.829 70.7438 239.138 71.0321C239.453 71.3136 239.882 71.4543 240.425 71.4543C240.713 71.4543 240.974 71.4062 241.207 71.3101C241.441 71.214 241.626 71.1111 241.763 71.0012C241.839 71.0493 241.897 71.1076 241.938 71.1763C241.986 71.238 242.01 71.3101 242.01 71.3925C242.01 71.5229 241.935 71.6465 241.784 71.7632C241.64 71.873 241.444 71.9622 241.197 72.0309C240.957 72.0995 240.686 72.1339 240.384 72.1339C239.855 72.1339 239.395 72.0378 239.004 71.8456C238.619 71.6533 238.321 71.3685 238.108 70.9909C237.902 70.6065 237.799 70.1397 237.799 69.5906C237.799 69.1993 237.854 68.8527 237.964 68.5506C238.081 68.2417 238.238 67.9809 238.438 67.7681C238.643 67.5553 238.887 67.394 239.169 67.2841C239.45 67.1674 239.755 67.1091 240.085 67.1091C240.504 67.1091 240.871 67.1983 241.187 67.3768C241.509 67.5553 241.76 67.8058 241.938 68.1285C242.124 68.4442 242.216 68.808 242.216 69.2199C242.216 69.3709 242.182 69.4807 242.113 69.5494C242.045 69.6112 241.949 69.6489 241.825 69.6627L238.365 70.1466Z" fill="#444444"/>
<path d="M21.638 78.4281C19.4816 78.015 17.6114 76.6906 16.5056 74.7937C15.4048 72.9051 15.172 70.636 15.8639 68.5639L21.3151 48.9972C16.7818 48.5933 12.7376 45.6499 11.0727 41.1283L7.34819 30.9928C7.00853 30.0673 7.48254 29.0417 8.40805 28.7012C8.45562 28.6828 8.50402 28.6678 8.55243 28.6536C9.43954 28.4049 10.3767 28.8831 10.6989 29.7611L14.4226 39.8957C15.6752 43.2981 18.839 45.4371 22.294 45.478L29.9409 18.0308L3.02777 24.8548C1.08413 25.3472 -0.197721 27.199 0.0251011 29.1919L6.51281 80.3568C6.79405 82.8704 9.23007 84.5562 11.6811 83.9344L28.336 79.7117L21.638 78.4281Z" fill="#ff3e6c"/>
<path d="M58.2709 18.182L51.7656 16.9736L52.974 10.4684C53.418 8.07825 55.7147 6.50097 58.1048 6.94494L64.61 8.15336L63.4016 14.6586C62.9585 17.0479 60.661 18.6252 58.2709 18.182Z" fill="#ff3e6c"/>
<path d="M74.2036 13.4916L67.6992 12.2832L68.9076 5.77794C69.3516 3.38782 71.6483 1.81054 74.0384 2.25451L80.5437 3.46293L79.3352 9.96817C78.8904 12.3575 76.5929 13.9347 74.2036 13.4916Z" fill="#ff3e6c"/>
<path d="M45.5218 7.60554L40.9844 6.76265L41.8273 2.22525C42.1018 0.747283 43.5222 -0.228295 45.0002 0.0462685L49.5376 0.889156L48.6947 5.42655C48.4201 6.90453 46.9998 7.8801 45.5218 7.60554Z" fill="#ff3e6c"/>
<path d="M81.0325 29.2849C81.0926 27.3146 79.7122 25.5921 77.7761 25.2207L39.4782 17.8843C39.2245 17.8359 38.9708 17.8125 38.7204 17.8125C37.0288 17.8125 35.4807 18.8857 34.9208 20.5406L19.1162 69.6333C18.3059 72.0293 19.7972 74.5888 22.2816 75.0645L73.7519 84.9238C74.019 84.9747 74.2835 84.9997 74.5448 84.9997C76.7454 84.9997 78.6349 83.2488 78.7041 80.9555L81.0325 29.2849Z" fill="#ff3e6c"/>
<path d="M40.2008 28.741L39.0158 39.474C38.3298 45.723 42.4557 51.3854 48.6138 52.6464L54.9981 53.9533C55.0482 53.9633 55.0982 53.9733 55.1483 53.9833C61.2838 55.1583 67.3801 51.3996 69.0718 45.3683L72.0227 34.8456C72.2889 33.8959 71.7348 32.9112 70.7851 32.6441C70.7358 32.6308 70.6866 32.6191 70.6365 32.6091C69.7352 32.4363 68.8364 32.9813 68.5836 33.8809L65.6326 44.4036C64.4426 48.6498 60.1806 51.3111 55.836 50.4791C55.7951 50.4716 55.7542 50.4632 55.7141 50.4549L49.3299 49.148C44.9894 48.2592 42.081 44.2684 42.5642 39.8654L43.7493 29.134C43.852 28.2044 43.2269 27.359 42.3214 27.1854C42.2722 27.1762 42.2213 27.1687 42.1704 27.1628C41.1914 27.0544 40.3093 27.7612 40.2008 28.741Z" fill="white"/>
</svg>
