<svg width="512" height="512" viewBox="0 0 512 512" fill="none" xmlns="http://www.w3.org/2000/svg">
<path d="M136.716 472.416C123.091 469.928 111.274 461.95 104.287 450.524C97.3325 439.148 95.8615 425.48 100.233 412.998L134.675 295.137C106.033 292.704 80.4803 274.975 69.9609 247.739L46.4281 186.687C44.2821 181.112 47.277 174.934 53.1246 172.883C53.4252 172.773 53.731 172.682 54.0369 172.597C59.642 171.099 65.5634 173.979 67.5987 179.267L91.1263 240.314C99.0409 260.809 119.03 273.693 140.86 273.939L189.176 108.609L19.1304 149.714C6.84985 152.68 -1.24926 163.835 0.158597 175.839L41.1499 484.033C42.9269 499.174 58.3184 509.329 73.8049 505.584L179.036 480.147L136.716 472.416Z" fill="#ff3e6c"/>
<path d="M368.172 109.52L327.07 102.241L334.705 63.0566C337.511 48.6596 352.021 39.1587 367.123 41.833L408.225 49.112L400.59 88.2967C397.79 102.689 383.274 112.19 368.172 109.52Z" fill="#ff3e6c"/>
<path d="M468.843 81.2673L427.746 73.9883L435.381 34.8037C438.186 20.4066 452.697 10.9058 467.799 13.5801L508.901 20.8591L501.266 60.0437C498.456 74.4357 483.939 83.9366 468.843 81.2673Z" fill="#ff3e6c"/>
<path d="M287.622 45.8124L258.953 40.7352L264.279 13.4039C266.014 4.50129 274.988 -1.37515 284.326 0.278701L312.995 5.35588L307.669 32.6871C305.935 41.5898 296.96 47.4662 287.622 45.8124Z" fill="#ff3e6c"/>
<path d="M511.986 176.399C512.365 164.531 503.644 154.155 491.411 151.918L249.433 107.727C247.83 107.435 246.227 107.294 244.645 107.294C233.957 107.294 224.176 113.759 220.638 123.727L120.78 419.44C115.66 433.872 125.082 449.289 140.78 452.155L465.985 511.543C467.672 511.849 469.344 512 470.994 512C484.899 512 496.837 501.454 497.274 487.64L511.986 176.399Z" fill="#ff3e6c"/>
<path d="M254 173.123L246.513 237.774C242.179 275.415 268.248 309.523 307.156 317.118L347.494 324.99C347.81 325.051 348.127 325.111 348.443 325.171C387.209 332.249 425.728 309.608 436.416 273.279L455.061 209.895C456.743 204.174 453.242 198.242 447.241 196.634C446.93 196.553 446.619 196.483 446.303 196.423C440.608 195.382 434.929 198.665 433.331 204.084L414.686 267.468C407.167 293.045 380.239 309.075 352.788 304.063C352.53 304.018 352.271 303.968 352.018 303.918L311.68 296.046C284.256 290.692 265.88 266.653 268.933 240.131L276.421 175.491C277.069 169.891 273.12 164.798 267.399 163.753C267.088 163.697 266.766 163.652 266.444 163.617C260.259 162.963 254.686 167.221 254 173.123Z" fill="white"/>
</svg>
